<?xml version="1.0" encoding="utf-8"?>
<?xml-stylesheet type="text/xsl" href="rss1.xsl"?>
<rss version="2.0" xmlns:atom="http://www.w3.org/2005/Atom" xmlns:content="http://purl.org/rss/1.0/modules/content/" xmlns:dc="http://purl.org/dc/elements/1.1/" xmlns:media="http://search.yahoo.com/mrss/">
<channel>
 <title>Getty</title>
 <link>http://www.gettyimg.com/</link>
 <atom:link href="http://www.gettyimg.com/" rel="self" type="application/rss+xml" />

 
                <item>
                <title><![CDATA[【Cinema Center】MOVIE - Menino Do Rio (1982) 1080p GLBO (GLOBOPLAY) WEB-DL AAC2.0 (Português Brasileiro) x264-DASH - 3.48GB MEGA]]></title>
                <link><![CDATA[https://sharemania.us/threads/menino-do-rio-1982-1080p-glbo-globoplay-web-dl-aac2-0-portugu%C3%AAs-brasileiro-x264-dash-3-48gb-mega.242790/]]></link>
                <description><![CDATA[<article>
<blockquote class="messageText SelectQuoteContainer ugc baseHtml">
<span style="font-size: 22px"><b>Menino.Do.Rio.1982.1080p.GLBO.WEB-DL.AAC2.0.x264-DASH.mkv (Português Brasileiro | Brazilian Portuguese) <b>| MEGA (3.48 GB) | AAC2.0 | GLOBO | x264 | DASH</b></b></span><br>
<span style="font-size: 18px"><br>
Título: <b>Menino Do Rio</b><br>
<br>
Ano de lançamento:<b> 1982</b><br>
<br>
Idioma: <b><b>Português (Brasil)</b></b><br>
<br>
Serviço:</span><b><b> <span style="font-size: 18px">GLOBOPLAY (Brasil)</span></b></b><br>
<br>
<div class="ToggleTriggerAnchor bbCodeSpoilerContainer">
<button type="button" class="button bbCodeSpoilerButton ToggleTrigger Tooltip JsOnly" data-target="> .SpoilerTarget"><span>Spoiler: <span class="SpoilerTitle">MediaInfo</span></span></button>
<div class="SpoilerTarget bbCodeSpoilerText">General<br>
Unique ID : 39635363325439823938727128257969392263 (0x1DD17E49777B1F1E6215FDE6BA320A87)<br>
Complete name : Menino.Do.Rio.1982.1080p.GLBO.WEB-DL.AAC2.0.x264-DASH\Menino.Do.Rio.1982.1080p.GLBO.WEB-DL.AAC2.0.x264-DASH.mkv<br>
Format : Matroska<br>
Format version : Version 4<br>
File size : 3.48 GiB<br>
Duration : 1 h 44 min<br>
Overall bit rate : 4 791 kb/s<br>
Frame rate : 29.970 FPS<br>
Encoded date : 2024-04-11 23:04:35 UTC<br>
Writing application : mkvmerge v82.0 ('I'm The President') 64-bit<br>
Writing library : libebml v1.4.5 + libmatroska v1.7.1<br>
<br>
Video<br>
ID : 1<br>
Format : AVC<br>
Format/Info : Advanced Video Codec<br>
Format profile : High@L4<br>
Format settings : CABAC / 2 Ref Frames<br>
Format settings, CABAC : Yes<br>
Format settings, Reference frames : 2 frames<br>
Format settings, GOP : M=2, N=30<br>
Codec ID : V_MPEG4/ISO/AVC<br>
Duration : 1 h 44 min<br>
Bit rate : 4 660 kb/s<br>
Width : 1 920 pixels<br>
Height : 1 080 pixels<br>
Display aspect ratio : 16:9<br>
Frame rate mode : Constant<br>
Frame rate : 29.970 (30000/1001) FPS<br>
Color space : YUV<br>
Chroma subsampling : 4:2:0<br>
Bit depth : 8 bits<br>
Scan type : Progressive<br>
Bits/(Pixel*Frame) : 0.075<br>
Stream size : 3.39 GiB (97%)<br>
Title : Portuguese<br>
Writing library : x264 core 155<br>
Encoding settings : cabac=1 / ref=2 / deblock=1:0:0 / analyse=0x3:0x113 / me=hex / subme=4 / psy=1 / psy_rd=1.00:0.00 / mixed_ref=0 / me_range=16 / chroma_me=1 / trellis=1 / 8x8dct=1 / cqm=0 / deadzone=21,11 / fast_pskip=1 / chroma_qp_offset=0 / threads=34 / lookahead_threads=8 / sliced_threads=0 / nr=0 / decimate=1 / interlaced=0 / bluray_compat=0 / constrained_intra=0 / bframes=1 / b_pyramid=0 / b_adapt=1 / b_bias=0 / direct=1 / weightb=1 / open_gop=0 / weightp=1 / keyint=30 / keyint_min=16 / scenecut=0 / intra_refresh=0 / rc=2pass / mbtree=0 / bitrate=4660 / ratetol=1.0 / qcomp=0.60 / qpmin=0 / qpmax=69 / qpstep=4 / cplxblur=20.0 / qblur=0.5 / ip_ratio=1.40 / pb_ratio=1.30 / aq=1:1.00<br>
Language : Portuguese<br>
Default : Yes<br>
Forced : No<br>
<br>
Audio<br>
ID : 2<br>
Format : AAC LC<br>
Format/Info : Advanced Audio Codec Low Complexity<br>
Codec ID : A_AAC-2<br>
Duration : 1 h 44 min<br>
Bit rate : 128 kb/s<br>
Channel(s) : 2 channels<br>
Channel layout : L R<br>
Sampling rate : 44.1 kHz<br>
Frame rate : 43.066 FPS (1024 SPF)<br>
Compression mode : Lossy<br>
Stream size : 95.3 MiB (3%)<br>
Title : Portuguese<br>
Language : Portuguese<br>
Default : Yes<br>
Forced : No</div>
</div><br>
<img src="https://i.ibb.co/7g7zfTz/2020-1247-menino-do-rio-background.jpg" class="bbCodeImage LbImage" alt="[​IMG]" data-url="https://i.ibb.co/7g7zfTz/2020-1247-menino-do-rio-background.jpg" style=""> <br>
<b><span style="font-size: 22px"><br>
Jovem que ganha a vida fazendo pranchas de surf se apaixona por uma garota da alta sociedade, mas sofre um choque ao descobrir que ela sentia uma forte atração pelo pai dele.</span></b><br>
<br>
<b><span style="font-size: 22px">Imagens:</span></b><br>
<img src="https://i.ibb.co/17LzLP5/Menino-Do-Rio-1982-1080p-GLBO-WEB-DL-AAC2-0-x264-DASH-mkv.png" class="bbCodeImage LbImage" alt="[​IMG]" data-url="https://i.ibb.co/17LzLP5/Menino-Do-Rio-1982-1080p-GLBO-WEB-DL-AAC2-0-x264-DASH-mkv.png" style=""> <br>
<b><span style="font-size: 22px"><br>
<b><span style="font-size: 26px">Download no Mega:</span></b></span><br>
<span style="font-size: 18px">
<div class="bbCodeBlock bbCodeVfcHH HiddenContent">
<div class="attribution type">Hidden Content:</div>
<blockquote>You must reply before you can see the hidden data contained here.</blockquote>
</div></span></b>
<div class="messageTextEndMarker">&nbsp;</div>
</blockquote>
</article>]]></description>
                <author><![CDATA[dash]]></author>
                </item>

                
                <item>
                <title><![CDATA[【Live Audios (lossy)】MP3 - Coldplay Brixton 2001]]></title>
                <link><![CDATA[https://sharemania.us/threads/coldplay-brixton-2001.242797/]]></link>
                <description><![CDATA[<article>
<blockquote class="messageText SelectQuoteContainer ugc baseHtml">
<div class="bbCodeBlock bbCodeVfcHH HiddenContent">
<div class="attribution type">Hidden Content:</div>
<blockquote>You must reply before you can see the hidden data contained here.</blockquote>
</div>
<div class="messageTextEndMarker">&nbsp;</div>
</blockquote>
</article>]]></description>
                <author><![CDATA[brendo098]]></author>
                </item>

                
                <item>
                <title><![CDATA[【Albums (lossless)】PACK - DISNEY'S THE complete LEGACY COLLECTION ''1×1'' | CLASSIC + LEGACY | FLAC 16bit 44.1kHz]]></title>
                <link><![CDATA[https://sharemania.us/threads/disneys-the-complete-legacy-collection-1%C3%971-classic-legacy-flac-16bit-44-1khz.242795/]]></link>
                <description><![CDATA[<article>
<blockquote class="messageText SelectQuoteContainer ugc baseHtml">
<b><span style="font-size: 18px">THE </span><span style="font-size: 15px"><span style="color: #808080">COMPLETE </span></span><span style="font-size: 18px">LEGACY COLLECTION — 1 × 1 ↪ </span></b><span style="font-size: 15px">1 CLASSIC × 1 LEGACY • </span><span style="font-size: 12px"><span style="color: #808080">1 CLÁSSICO × 1 LEGADO</span><br>
<span style="color: #000000">CHOOSE YOUR FAVORITE EDITION, AND ENJOY IT! </span></span>— <span style="font-size: 10px"><span style="color: #808080">ESCOLHA SUA EDIÇÃO FAVORITA, E AUMENTE O VOLUME!</span><br>
</span><br>
<b><span style="color: #b30000"><span style="font-size: 22px">Enjoy! (^_~) </span></span><span style="font-size: 15px"><span style="color: #b35900">Desfrute!</span></span></b><br>
<span style="color: #808080"><span style="font-size: 10px"><br>
<span style="color: #404040"><span style="font-size: 12px">— TAP THE IMAGE TO ZOOM! — </span></span><span style="color: rgb(128, 128, 128)"><span style="font-size: 10px">TOQUE A IMAGEM PARA ZOOM!</span></span></span></span><br>
<a href="https://ibb.co/5RWrPHW" target="_blank" class="externalLink" rel="nofollow"><img src="https://i.ibb.co/RDp3qwp/DISNEY-S-THE-complete-LEGACY-COLLECTION-1-1-list-a.png" class="bbCodeImage LbImage" alt="[​IMG]" data-url="https://i.ibb.co/RDp3qwp/DISNEY-S-THE-complete-LEGACY-COLLECTION-1-1-list-a.png"></a><br>
<span style="color: #404040"><span style="font-size: 12px">— TAP ''CLASSIC'' OR ''LEGACY'' TO DOWNLOAD! — </span></span><span style="color: rgb(128, 128, 128)"><span style="font-size: 10px">TOQUE ''CLASSIC" OU "LEGACY" PARA BAIXAR!</span></span><br>
<div class="bbCodeBlock bbCodeVfcHH HiddenContent">
<div class="attribution type">Hidden Content:</div>
<blockquote>You must either reply or click 'Like' to see the hidden information contained here.</blockquote>
</div><span style="color: #404040"><span style="font-size: 12px">— TAP THE IMAGE TO ZOOM! — </span></span><span style="color: rgb(128, 128, 128)"><span style="font-size: 10px">TOQUE A IMAGEM PARA ZOOM!</span></span><br>
<a href="https://ibb.co/RT802vH" target="_blank" class="externalLink" rel="nofollow"><img src="https://i.ibb.co/d4Z2BWK/DISNEY-S-THE-complete-LEGACY-COLLECTION-1-1-list-b.png" class="bbCodeImage LbImage" alt="[​IMG]" data-url="https://i.ibb.co/d4Z2BWK/DISNEY-S-THE-complete-LEGACY-COLLECTION-1-1-list-b.png"></a> <br>
<span style="color: #404040"><span style="font-size: 12px">— TAP ''CLASSIC'' OR ''LEGACY'' TO DOWNLOAD! — </span></span><span style="color: rgb(128, 128, 128)"><span style="font-size: 10px">TOQUE ''CLASSIC" OU "LEGACY" PARA BAIXAR!</span></span><br>
<div class="bbCodeBlock bbCodeVfcHH HiddenContent">
<div class="attribution type">Hidden Content:</div>
<blockquote>You must reply before you can see the hidden data contained here.</blockquote>
</div><span style="color: #404040"><span style="font-size: 12px">— TAP THE IMAGE TO ZOOM! — </span></span><span style="color: rgb(128, 128, 128)"><span style="font-size: 10px">TOQUE A IMAGEM PARA ZOOM!</span></span><br>
<a href="https://ibb.co/SKkhBgj" target="_blank" class="externalLink" rel="nofollow"><img src="https://i.ibb.co/64K3FSM/DISNEY-S-THE-complete-LEGACY-COLLECTION-1-1-list-c.png" class="bbCodeImage LbImage" alt="[​IMG]" data-url="https://i.ibb.co/64K3FSM/DISNEY-S-THE-complete-LEGACY-COLLECTION-1-1-list-c.png"></a> <br>
<span style="color: #404040"><span style="font-size: 12px">— TAP ''CLASSIC'' OR ''LEGACY'' TO DOWNLOAD! — </span></span><span style="color: rgb(128, 128, 128)"><span style="font-size: 10px">TOQUE ''CLASSIC" OU "LEGACY" PARA BAIXAR!</span></span><br>
<div class="bbCodeBlock bbCodeVfcHH HiddenContent">
<div class="attribution type">Hidden Content:</div>
<blockquote>You must either reply or click 'Like' to see the hidden information contained here.</blockquote>
</div><br>
<span style="font-size: 12px"><span style="color: #808080"><b>That's all, folks!</b><br>
Isso é tudo, pessoal!</span></span>
<div class="messageTextEndMarker">&nbsp;</div>
</blockquote>
</article>]]></description>
                <author><![CDATA[mcarloss88n]]></author>
                </item>

                
                <item>
                <title><![CDATA[【Live Audios (lossy)】MP3 - Avril lavigne Best Damn Thing tour Dvd Audio]]></title>
                <link><![CDATA[https://sharemania.us/threads/avril-lavigne-best-damn-thing-tour-dvd-audio.242793/]]></link>
                <description><![CDATA[<article>
<blockquote class="messageText SelectQuoteContainer ugc baseHtml">
<div class="bbCodeBlock bbCodeVfcHH HiddenContent">
<div class="attribution type">Hidden Content:</div>
<blockquote>You must reply before you can see the hidden data contained here.</blockquote>
</div>
<div class="messageTextEndMarker">&nbsp;</div>
</blockquote>
</article>]]></description>
                <author><![CDATA[brendo098]]></author>
                </item>

                
                <item>
                <title><![CDATA[【Cinema Center】MOVIE - Cidade De Deus (2002) 1080p GLBO (GLOBOPLAY) WEB-DL AAC2.0 (Português Brasileiro) x264-DASH - 4.26GB MEGA]]></title>
                <link><![CDATA[https://sharemania.us/threads/cidade-de-deus-2002-1080p-glbo-globoplay-web-dl-aac2-0-portugu%C3%AAs-brasileiro-x264-dash-4-26gb-mega.242792/]]></link>
                <description><![CDATA[<article>
<blockquote class="messageText SelectQuoteContainer ugc baseHtml">
<span style="font-size: 22px"><b>Cidade.De.Deus.2002.1080p.GLBO.WEB-DL.AAC2.0.x264-DASH.mkv (Português Brasileiro | Brazilian Portuguese) <b>| MEGA (4.26 GB) | AAC2.0 | GLOBO | x264 | DASH</b></b></span><br>
<span style="font-size: 18px"><br>
Título: </span><b><span style="font-size: 18px">Cidade De Deus</span></b><br>
<span style="font-size: 18px"><br>
Ano de lançamento:<b> 2002</b><br>
<br>
Idioma: <b><b>Português (Brasil)</b></b><br>
<br>
Serviço:</span><b><b> <span style="font-size: 18px">GLOBOPLAY (Brasil)</span></b></b><br>
<br>
<div class="ToggleTriggerAnchor bbCodeSpoilerContainer">
<button type="button" class="button bbCodeSpoilerButton ToggleTrigger Tooltip JsOnly" data-target="> .SpoilerTarget"><span>Spoiler: <span class="SpoilerTitle">MediaInfo</span></span></button>
<div class="SpoilerTarget bbCodeSpoilerText">General<br>
Unique ID : 68221654010643951524787756230409300341 (0x3353033BD0F12E57F7648D74C335A975)<br>
Complete name : Cidade.De.Deus.2002.1080p.GLBO.WEB-DL.AAC2.0.x264-DASH\Cidade.De.Deus.2002.1080p.GLBO.WEB-DL.AAC2.0.x264-DASH.mkv<br>
Format : Matroska<br>
Format version : Version 4<br>
File size : 4.26 GiB<br>
Duration : 2 h 7 min<br>
Overall bit rate : 4 789 kb/s<br>
Frame rate : 29.970 FPS<br>
Encoded date : 2024-04-15 03:02:25 UTC<br>
Writing application : mkvmerge v82.0 ('I'm The President') 64-bit<br>
Writing library : libebml v1.4.5 + libmatroska v1.7.1<br>
<br>
Video<br>
ID : 1<br>
Format : AVC<br>
Format/Info : Advanced Video Codec<br>
Format profile : High@L4<br>
Format settings : CABAC / 2 Ref Frames<br>
Format settings, CABAC : Yes<br>
Format settings, Reference frames : 2 frames<br>
Codec ID : V_MPEG4/ISO/AVC<br>
Duration : 2 h 7 min<br>
Bit rate : 4 660 kb/s<br>
Width : 1 920 pixels<br>
Height : 1 080 pixels<br>
Display aspect ratio : 16:9<br>
Frame rate mode : Constant<br>
Frame rate : 29.970 (29970/1000) FPS<br>
Color space : YUV<br>
Chroma subsampling : 4:2:0<br>
Bit depth : 8 bits<br>
Scan type : Progressive<br>
Bits/(Pixel*Frame) : 0.075<br>
Stream size : 4.15 GiB (97%)<br>
Title : Portuguese<br>
Writing library : x264 core 155<br>
Encoding settings : cabac=1 / ref=2 / deblock=1:0:0 / analyse=0x3:0x113 / me=hex / subme=4 / psy=1 / psy_rd=1.00:0.00 / mixed_ref=0 / me_range=16 / chroma_me=1 / trellis=1 / 8x8dct=1 / cqm=0 / deadzone=21,11 / fast_pskip=1 / chroma_qp_offset=0 / threads=34 / lookahead_threads=8 / sliced_threads=0 / nr=0 / decimate=1 / interlaced=0 / bluray_compat=0 / constrained_intra=0 / bframes=1 / b_pyramid=0 / b_adapt=1 / b_bias=0 / direct=1 / weightb=1 / open_gop=0 / weightp=1 / keyint=30 / keyint_min=16 / scenecut=0 / intra_refresh=0 / rc=2pass / mbtree=0 / bitrate=4660 / ratetol=1.0 / qcomp=0.60 / qpmin=0 / qpmax=69 / qpstep=4 / cplxblur=20.0 / qblur=0.5 / ip_ratio=1.40 / pb_ratio=1.30 / aq=1:1.00<br>
Language : Portuguese<br>
Default : Yes<br>
Forced : No<br>
<br>
Audio<br>
ID : 2<br>
Format : AAC LC<br>
Format/Info : Advanced Audio Codec Low Complexity<br>
Codec ID : A_AAC-2<br>
Duration : 2 h 7 min<br>
Bit rate : 128 kb/s<br>
Channel(s) : 2 channels<br>
Channel layout : L R<br>
Sampling rate : 44.1 kHz<br>
Frame rate : 43.066 FPS (1024 SPF)<br>
Compression mode : Lossy<br>
Stream size : 117 MiB (3%)<br>
Title : Portuguese<br>
Language : Portuguese<br>
Default : Yes<br>
Forced : No</div>
</div><br>
<img src="https://i.ibb.co/VxXmxQV/2021-1410-cidade-de-deus-background.jpg" class="bbCodeImage LbImage" alt="[​IMG]" data-url="https://i.ibb.co/VxXmxQV/2021-1410-cidade-de-deus-background.jpg" style=""> <br>
<b><span style="font-size: 22px"><br>
Buscapé é um jovem pobre que cresce na Cidade de Deus, a favela mais violenta da cidade. Com talento para a fotografia, ele registra o dia a dia da comunidade.</span></b><br>
<br>
<b><span style="font-size: 22px">Imagens:</span></b><br>
<img src="https://i.ibb.co/LRfRMx6/Cidade-De-Deus-2002-1080p-GLBO-WEB-DL-AAC2-0-x264-DASH-mkv.png" class="bbCodeImage LbImage" alt="[​IMG]" data-url="https://i.ibb.co/LRfRMx6/Cidade-De-Deus-2002-1080p-GLBO-WEB-DL-AAC2-0-x264-DASH-mkv.png" style=""> <br>
<b><span style="font-size: 22px"><br>
<b><span style="font-size: 26px">Download no Mega:</span></b></span><br>
<span style="font-size: 18px">
<div class="bbCodeBlock bbCodeVfcHH HiddenContent">
<div class="attribution type">Hidden Content:</div>
<blockquote>You must reply before you can see the hidden data contained here.</blockquote>
</div></span></b>
<div class="messageTextEndMarker">&nbsp;</div>
</blockquote>
</article>]]></description>
                <author><![CDATA[dash]]></author>
                </item>

                
                <item>
                <title><![CDATA[【Cinema Center】MOVIE - Minha Vida Em Marte (2018) 1080p GLBO (GLOBOPLAY) WEB-DL AAC2.0 (Português Brasileiro) x264-DASH - 3.50GB MEGA]]></title>
                <link><![CDATA[https://sharemania.us/threads/minha-vida-em-marte-2018-1080p-glbo-globoplay-web-dl-aac2-0-portugu%C3%AAs-brasileiro-x264-dash-3-50gb-mega.242794/]]></link>
                <description><![CDATA[<article>
<blockquote class="messageText SelectQuoteContainer ugc baseHtml">
<span style="font-size: 22px"><b>Minha.Vida.Em.Marte.2018.1080p.GLBO.WEB-DL.AAC2.0.x264-DASH.mkv (Português Brasileiro | Brazilian Portuguese) <b>| MEGA (3.50 GB) | AAC2.0 | GLOBO | x264 | DASH</b></b></span><br>
<span style="font-size: 18px"><br>
Título: </span><b><span style="font-size: 18px">Minha Vida Em Marte</span></b><br>
<span style="font-size: 18px"><br>
Ano de lançamento:<b> 2018</b><br>
<br>
Idioma: <b><b>Português (Brasil)</b></b><br>
<br>
Serviço:</span><b><b> <span style="font-size: 18px">GLOBOPLAY (Brasil)</span></b></b><br>
<br>
<div class="ToggleTriggerAnchor bbCodeSpoilerContainer">
<button type="button" class="button bbCodeSpoilerButton ToggleTrigger Tooltip JsOnly" data-target="> .SpoilerTarget"><span>Spoiler: <span class="SpoilerTitle">MediaInfo</span></span></button>
<div class="SpoilerTarget bbCodeSpoilerText">General<br>
Unique ID : 234862170216896559225325641030022522518 (0xB0B0CF033109F2D19DF750B39D0CE696)<br>
Complete name : Minha.Vida.Em.Marte.2018.1080p.GLBO.WEB-DL.AAC2.0.x264-DASH\Minha.Vida.Em.Marte.2018.1080p.GLBO.WEB-DL.AAC2.0.x264-DASH.mkv<br>
Format : Matroska<br>
Format version : Version 4<br>
File size : 3.50 GiB<br>
Duration : 1 h 42 min<br>
Overall bit rate : 4 907 kb/s<br>
Frame rate : 29.970 FPS<br>
Encoded date : 2024-04-13 07:46:16 UTC<br>
Writing application : mkvmerge v82.0 ('I'm The President') 64-bit<br>
Writing library : libebml v1.4.5 + libmatroska v1.7.1<br>
<br>
Video<br>
ID : 1<br>
Format : AVC<br>
Format/Info : Advanced Video Codec<br>
Format profile : High@L4<br>
Format settings : CABAC / 2 Ref Frames<br>
Format settings, CABAC : Yes<br>
Format settings, Reference frames : 2 frames<br>
Codec ID : V_MPEG4/ISO/AVC<br>
Duration : 1 h 42 min<br>
Bit rate : 4 788 kb/s<br>
Width : 1 920 pixels<br>
Height : 1 080 pixels<br>
Display aspect ratio : 16:9<br>
Frame rate mode : Constant<br>
Frame rate : 29.970 (29970/1000) FPS<br>
Color space : YUV<br>
Chroma subsampling : 4:2:0<br>
Bit depth : 8 bits<br>
Scan type : Progressive<br>
Bits/(Pixel*Frame) : 0.077<br>
Stream size : 3.41 GiB (97%)<br>
Title : Portuguese<br>
Writing library : x264 core 155<br>
Encoding settings : cabac=1 / ref=2 / deblock=1:0:0 / analyse=0x3:0x113 / me=hex / subme=4 / psy=1 / psy_rd=1.00:0.00 / mixed_ref=0 / me_range=16 / chroma_me=1 / trellis=1 / 8x8dct=1 / cqm=0 / deadzone=21,11 / fast_pskip=1 / chroma_qp_offset=0 / threads=34 / lookahead_threads=8 / sliced_threads=0 / nr=0 / decimate=1 / interlaced=0 / bluray_compat=0 / constrained_intra=0 / bframes=1 / b_pyramid=0 / b_adapt=1 / b_bias=0 / direct=1 / weightb=1 / open_gop=0 / weightp=1 / keyint=30 / keyint_min=16 / scenecut=0 / intra_refresh=0 / rc=2pass / mbtree=0 / bitrate=4788 / ratetol=1.0 / qcomp=0.60 / qpmin=0 / qpmax=69 / qpstep=4 / cplxblur=20.0 / qblur=0.5 / ip_ratio=1.40 / pb_ratio=1.30 / aq=1:1.00<br>
Language : Portuguese<br>
Default : Yes<br>
Forced : No<br>
<br>
Audio<br>
ID : 2<br>
Format : AAC LC<br>
Format/Info : Advanced Audio Codec Low Complexity<br>
Codec ID : A_AAC-2<br>
Duration : 1 h 42 min<br>
Bit rate : 128 kb/s<br>
Channel(s) : 2 channels<br>
Channel layout : L R<br>
Sampling rate : 44.1 kHz<br>
Frame rate : 43.066 FPS (1024 SPF)<br>
Compression mode : Lossy<br>
Stream size : 93.6 MiB (3%)<br>
Title : Portuguese<br>
Language : Portuguese<br>
Default : Yes<br>
Forced : No</div>
</div><br>
<img src="https://i.ibb.co/tbFNjPr/2020-927-minha-vida-em-marte-background.jpg" class="bbCodeImage LbImage" alt="[​IMG]" data-url="https://i.ibb.co/tbFNjPr/2020-927-minha-vida-em-marte-background.jpg" style=""> <br>
<b><span style="font-size: 22px"><br>
O casamento de Fernanda está em crise. Quando vem o divórcio, ela conta com seu fiel amigo Aníbal na jornada em busca de si mesma. Juntos, vão da diversão à reflexão.</span></b><br>
<br>
<b><span style="font-size: 22px">Imagens:</span></b><br>
<img src="https://i.ibb.co/MkKQDTz/Minha-Vida-Em-Marte-2018-1080p-GLBO-WEB-DL-AAC2-0-x264-DASH-mkv.png" class="bbCodeImage LbImage" alt="[​IMG]" data-url="https://i.ibb.co/MkKQDTz/Minha-Vida-Em-Marte-2018-1080p-GLBO-WEB-DL-AAC2-0-x264-DASH-mkv.png" style=""> <br>
<b><span style="font-size: 22px"><br>
<b><span style="font-size: 26px">Download no Mega:</span></b></span><br>
<span style="font-size: 18px">
<div class="bbCodeBlock bbCodeVfcHH HiddenContent">
<div class="attribution type">Hidden Content:</div>
<blockquote>You must reply before you can see the hidden data contained here.</blockquote>
</div></span></b>
<div class="messageTextEndMarker">&nbsp;</div>
</blockquote>
</article>]]></description>
                <author><![CDATA[dash]]></author>
                </item>

                
                <item>
                <title><![CDATA[【Cinema Center】MOVIE - Central Do Brasil (1998) 1080p GLBO (GLOBOPLAY) WEB-DL AAC2.0 (Português Brasileiro) x264-DASH - 4.26GB MEGA]]></title>
                <link><![CDATA[https://sharemania.us/threads/central-do-brasil-1998-1080p-glbo-globoplay-web-dl-aac2-0-portugu%C3%AAs-brasileiro-x264-dash-4-26gb-mega.242791/]]></link>
                <description><![CDATA[<article>
<blockquote class="messageText SelectQuoteContainer ugc baseHtml">
<span style="font-size: 22px"><b>Central.Do.Brasil.1998.1080p.GLBO.WEB-DL.AAC2.0.H.265-DASH.mkv (Português Brasileiro | Brazilian Portuguese) <b>| MEGA (5.33 GB) | AAC2.0 | GLOBO | HEVC | DASH</b></b></span><br>
<span style="font-size: 18px"><br>
Título: </span><b><span style="font-size: 18px">Cidade De Deus</span></b><br>
<span style="font-size: 18px"><br>
Ano de lançamento:<b> 2002</b><br>
<br>
Idioma: <b><b>Português (Brasil)</b></b><br>
<br>
Serviço:</span><b><b> <span style="font-size: 18px">GLOBOPLAY (Brasil)</span></b></b><br>
<br>
<div class="ToggleTriggerAnchor bbCodeSpoilerContainer">
<button type="button" class="button bbCodeSpoilerButton ToggleTrigger Tooltip JsOnly" data-target="> .SpoilerTarget"><span>Spoiler: <span class="SpoilerTitle">MediaInfo</span></span></button>
<div class="SpoilerTarget bbCodeSpoilerText">General<br>
Unique ID : 326914537179450589643186333163110878555 (0xF5F1731BAB2B7A9BFF3E3F446D654D5B)<br>
Complete name : Central.Do.Brasil.1998.1080p.GLBO.WEB-DL.AAC2.0.H.265-DASH\Central.Do.Brasil.1998.1080p.GLBO.WEB-DL.AAC2.0.H.265-DASH.mkv<br>
Format : Matroska<br>
Format version : Version 4<br>
File size : 5.33 GiB<br>
Duration : 1 h 47 min<br>
Overall bit rate : 7 112 kb/s<br>
Frame rate : 29.970 FPS<br>
Encoded date : 2024-04-20 22:11:26 UTC<br>
Writing application : mkvmerge v82.0 ('I'm The President') 64-bit<br>
Writing library : libebml v1.4.5 + libmatroska v1.7.1<br>
<br>
Video<br>
ID : 1<br>
Format : HEVC<br>
Format/Info : High Efficiency Video Coding<br>
Format profile : Main 10@L5@Main<br>
Codec ID : V_MPEGH/ISO/HEVC<br>
Duration : 1 h 47 min<br>
Bit rate : 6 981 kb/s<br>
Width : 1 920 pixels<br>
Height : 1 080 pixels<br>
Display aspect ratio : 16:9<br>
Frame rate mode : Constant<br>
Frame rate : 29.970 (30000/1001) FPS<br>
Color space : YUV<br>
Chroma subsampling : 4:2:0<br>
Bit depth : 10 bits<br>
Bits/(Pixel*Frame) : 0.112<br>
Stream size : 5.23 GiB (98%)<br>
Title : Portuguese<br>
Language : Portuguese<br>
Default : Yes<br>
Forced : No<br>
Color range : Limited<br>
<br>
Audio<br>
ID : 2<br>
Format : AAC LC<br>
Format/Info : Advanced Audio Codec Low Complexity<br>
Codec ID : A_AAC-2<br>
Duration : 1 h 47 min<br>
Bit rate : 128 kb/s<br>
Channel(s) : 2 channels<br>
Channel layout : L R<br>
Sampling rate : 44.1 kHz<br>
Frame rate : 43.066 FPS (1024 SPF)<br>
Compression mode : Lossy<br>
Stream size : 98.2 MiB (2%)<br>
Title : Portuguese<br>
Language : Portuguese<br>
Default : Yes<br>
Forced : No</div>
</div><br>
<img src="https://i.ibb.co/xqxFT4L/2020-1249-central-do-brasil-background.jpg" class="bbCodeImage LbImage" alt="[​IMG]" data-url="https://i.ibb.co/xqxFT4L/2020-1249-central-do-brasil-background.jpg" style=""> <br>
<b><span style="font-size: 22px"><br>
Dora escreve cartas para analfabetos na Central do Brasil. Uma de suas clientes tenta reaproximar o filho do pai. Mas ela morre, e Dora acolhe a criança, partindo em busca do pai.<br>
<br>
Imagens:</span></b><br>
<img src="https://i.ibb.co/t885V5g/Central-Do-Brasil-1998-1080p-GLBO-WEB-DL-AAC2-0-H-265-DASH-mkv.png" class="bbCodeImage LbImage" alt="[​IMG]" data-url="https://i.ibb.co/t885V5g/Central-Do-Brasil-1998-1080p-GLBO-WEB-DL-AAC2-0-H-265-DASH-mkv.png" style=""> <br>
<b><span style="font-size: 22px"><br>
<b><span style="font-size: 26px">Download no Mega:</span></b></span><br>
<span style="font-size: 18px">
<div class="bbCodeBlock bbCodeVfcHH HiddenContent">
<div class="attribution type">Hidden Content:</div>
<blockquote>You must reply before you can see the hidden data contained here.</blockquote>
</div></span></b>
<div class="messageTextEndMarker">&nbsp;</div>
</blockquote>
</article>]]></description>
                <author><![CDATA[dash]]></author>
                </item>

                
                <item>
                <title><![CDATA[【Requests】[REQ AUD] - Hello can You Please download this music.]]></title>
                <link><![CDATA[https://sharemania.us/threads/hello-can-you-please-download-this-music.242783/]]></link>
                <description><![CDATA[<article>
<blockquote class="messageText SelectQuoteContainer ugc baseHtml">
22 songs in total, thank you.<br>
<br>
1.<br>
<a href="https://www.qobuz.com/us-en/album/mas-y-mas-on-on-cartoon-jeja-daniel-levi/r2fzhr982ozrc" target="_blank" class="externalLink" rel="nofollow">https://www.qobuz.com/us-en/album/mas-y-mas-on-on-cartoon-jeja-daniel-levi/r2fzhr982ozrc</a><br>
2.<br>
<a href="https://www.qobuz.com/us-en/album/link-jim-yosef/pdd8xd9lz9h5a" target="_blank" class="externalLink" rel="nofollow">https://www.qobuz.com/us-en/album/link-jim-yosef/pdd8xd9lz9h5a</a><br>
3.<br>
<a href="https://www.qobuz.com/us-en/album/broken-string-clarx-shiah-maisel/zjtiuz086vyub" target="_blank" class="externalLink" rel="nofollow">https://www.qobuz.com/us-en/album/broken-string-clarx-shiah-maisel/zjtiuz086vyub</a><br>
4.<br>
<a href="https://www.qobuz.com/us-en/album/one-of-us-clarx-zaug-slidv/i2ycj4w72ad3a" target="_blank" class="externalLink" rel="nofollow">https://www.qobuz.com/us-en/album/one-of-us-clarx-zaug-slidv/i2ycj4w72ad3a</a><br>
5.<br>
<a href="https://www.qobuz.com/us-en/album/hay-clarx/ph424ws3a188a" target="_blank" class="externalLink" rel="nofollow">https://www.qobuz.com/us-en/album/hay-clarx/ph424ws3a188a</a><br>
6.<br>
<a href="https://www.qobuz.com/us-en/album/sugar-plumbin-reece-taylor/h27zimo9y9usb" target="_blank" class="externalLink" rel="nofollow">https://www.qobuz.com/us-en/album/sugar-plumbin-reece-taylor/h27zimo9y9usb</a><br>
7.<br>
<a href="https://www.qobuz.com/us-en/album/whats-the-problem-oski/m6qezsat5aqxa" target="_blank" class="externalLink" rel="nofollow">https://www.qobuz.com/us-en/album/whats-the-problem-oski/m6qezsat5aqxa</a><br>
8.<br>
<a href="https://www.qobuz.com/us-en/album/home-pleeg/o3aa57zzgl9sb" target="_blank" class="externalLink" rel="nofollow">https://www.qobuz.com/us-en/album/home-pleeg/o3aa57zzgl9sb</a><br>
9.<br>
<a href="https://www.qobuz.com/us-en/album/shakedown-clarx/e8nhudcea2cqa" target="_blank" class="externalLink" rel="nofollow">https://www.qobuz.com/us-en/album/shakedown-clarx/e8nhudcea2cqa</a><br>
10.<br>
<a href="https://www.qobuz.com/us-en/album/would-you-be-waiting-aeden/cgqutj4o3vfda" target="_blank" class="externalLink" rel="nofollow">https://www.qobuz.com/us-en/album/would-you-be-waiting-aeden/cgqutj4o3vfda</a><br>
11.<br>
<a href="https://www.qobuz.com/us-en/album/freefalling-facading/hdu4867w1j3yc" target="_blank" class="externalLink" rel="nofollow">https://www.qobuz.com/us-en/album/freefalling-facading/hdu4867w1j3yc</a><br>
12.<br>
<a href="https://www.qobuz.com/us-en/album/on-on-cartoon-jeja-daniel-levi/uz8tobytese3a" target="_blank" class="externalLink" rel="nofollow">https://www.qobuz.com/us-en/album/on-on-cartoon-jeja-daniel-levi/uz8tobytese3a</a>
<div class="messageTextEndMarker">&nbsp;</div>
</blockquote>
</article>]]></description>
                <author><![CDATA[AmyLynn]]></author>
                </item>

                
                <item>
                <title><![CDATA[【Live Audios (lossy)】MP3 - Carly Rae Jepsen Pitchfork 2016]]></title>
                <link><![CDATA[https://sharemania.us/threads/carly-rae-jepsen-pitchfork-2016.242796/]]></link>
                <description><![CDATA[<article>
<blockquote class="messageText SelectQuoteContainer ugc baseHtml">
<div class="bbCodeBlock bbCodeVfcHH HiddenContent">
<div class="attribution type">Hidden Content:</div>
<blockquote>You must reply before you can see the hidden data contained here.</blockquote>
</div>
<div class="messageTextEndMarker">&nbsp;</div>
</blockquote>
</article>]]></description>
                <author><![CDATA[brendo098]]></author>
                </item>

                </channel></rss>